<svg xmlns="http://www.w3.org/2000/svg" width="23.215" height="23.215" viewBox="0 0 23.215 23.215"><defs><style>.a{fill-rule:evenodd;}</style></defs><path class="a" d="M14.4,7.875a.725.725,0,0,1,.725.725v5.8a.725.725,0,0,1-.725.725H8.6a.725.725,0,0,1,0-1.451h5.078V8.6A.725.725,0,0,1,14.4,7.875Z" transform="translate(-2.797 -2.797)"/><path class="a" d="M16.875,17.6a.725.725,0,0,1,.725-.725h5.8a.725.725,0,0,1,0,1.451H18.326V23.4a.725.725,0,0,1-1.451,0Z" transform="translate(-5.993 -5.993)"/><path class="a" d="M11.607,21.764A10.156,10.156,0,1,0,1.451,11.607,10.156,10.156,0,0,0,11.607,21.764Zm0,1.451A11.607,11.607,0,1,0,0,11.607,11.607,11.607,0,0,0,11.607,23.215Z"/></svg>