<svg xmlns="http://www.w3.org/2000/svg" width="20.246" height="20.246" viewBox="0 0 20.246 20.246"><defs><style>.a{fill-rule:evenodd;}</style></defs><path class="a" d="M6.96,0a.633.633,0,0,1,.633.633V5.694a1.9,1.9,0,0,1-1.9,1.9H.633a.633.633,0,0,1,0-1.265H5.694a.633.633,0,0,0,.633-.633V.633A.633.633,0,0,1,6.96,0Zm6.327,0a.633.633,0,0,1,.633.633V5.694a.633.633,0,0,0,.633.633h5.062a.633.633,0,0,1,0,1.265H14.552a1.9,1.9,0,0,1-1.9-1.9V.633A.633.633,0,0,1,13.286,0ZM0,13.286a.633.633,0,0,1,.633-.633H5.694a1.9,1.9,0,0,1,1.9,1.9v5.062a.633.633,0,0,1-1.265,0V14.552a.633.633,0,0,0-.633-.633H.633A.633.633,0,0,1,0,13.286Zm12.654,1.265a1.9,1.9,0,0,1,1.9-1.9h5.062a.633.633,0,0,1,0,1.265H14.552a.633.633,0,0,0-.633.633v5.062a.633.633,0,0,1-1.265,0Z"/></svg>